<svg xmlns="http://www.w3.org/2000/svg" viewBox="0 0 100 100" width="100" height="100">
  <!-- Hair -->
  <path d="M30 35 Q32 18 50 15 Q68 18 70 35 Q68 22 58 24 Q50 20 42 24 Q32 22 30 35Z" fill="#5d4037"/>
  <!-- Face -->
  <circle cx="50" cy="38" r="18" fill="#FFCC80"/>
  <!-- Eyes -->
  <circle cx="43" cy="36" r="2.8" fill="#fff"/>
  <circle cx="57" cy="36" r="2.8" fill="#fff"/>
  <circle cx="43" cy="36" r="1.6" fill="#2196f3"/>
  <circle cx="57" cy="36" r="1.6" fill="#2196f3"/>
  <!-- Smile -->
  <path d="M44 44 Q50 49 56 44" fill="none" stroke="#795548" stroke-width="1.3" stroke-linecap="round"/>
  <!-- T-shirt -->
  <path d="M30 58 Q35 54 50 54 Q65 54 70 58 L73 85 L27 85 Z" fill="#2196f3"/>
  <path d="M44 54 L44 72" stroke="#1976d2" stroke-width="1"/>
  <path d="M56 54 L56 72" stroke="#1976d2" stroke-width="1"/>
  <!-- Collar -->
  <path d="M42 54 L50 60 L58 54" fill="none" stroke="#1565c0" stroke-width="1.5"/>
  <!-- Arms -->
  <path d="M30 58 L22 72" stroke="#FFCC80" stroke-width="5" stroke-linecap="round"/>
  <path d="M70 58 L78 72" stroke="#FFCC80" stroke-width="5" stroke-linecap="round"/>
  <!-- Legs -->
  <rect x="37" y="85" width="10" height="10" rx="3" fill="#37474f"/>
  <rect x="53" y="85" width="10" height="10" rx="3" fill="#37474f"/>
  <!-- Shoes -->
  <ellipse cx="42" cy="96" rx="7" ry="3" fill="#333"/>
  <ellipse cx="58" cy="96" rx="7" ry="3" fill="#333"/>
</svg>
