<svg xmlns="http://www.w3.org/2000/svg" viewBox="0 0 100 100" width="100" height="100">
  <!-- Long hair -->
  <path d="M26 40 Q28 15 50 12 Q72 15 74 40 L76 60 Q72 55 68 58 L68 35 Q66 22 50 20 Q34 22 32 35 L32 58 Q28 55 24 60 Z" fill="#6d4c41"/>
  <!-- Hair strands down sides -->
  <path d="M24 60 Q22 75 28 85" stroke="#5d4037" stroke-width="4" fill="none" stroke-linecap="round"/>
  <path d="M76 60 Q78 75 72 85" stroke="#5d4037" stroke-width="4" fill="none" stroke-linecap="round"/>
  <!-- Face -->
  <circle cx="50" cy="40" r="17" fill="#FFCC80"/>
  <!-- Eyes -->
  <circle cx="44" cy="38" r="2.5" fill="#fff"/>
  <circle cx="56" cy="38" r="2.5" fill="#fff"/>
  <circle cx="44" cy="38" r="1.4" fill="#8e24aa"/>
  <circle cx="56" cy="38" r="1.4" fill="#8e24aa"/>
  <!-- Eyelashes -->
  <path d="M41 35.5 L40 33.5" stroke="#5d4037" stroke-width="0.8"/>
  <path d="M43 35 L43 33" stroke="#5d4037" stroke-width="0.8"/>
  <path d="M57 35 L57 33" stroke="#5d4037" stroke-width="0.8"/>
  <path d="M59 35.5 L60 33.5" stroke="#5d4037" stroke-width="0.8"/>
  <!-- Blush -->
  <ellipse cx="39" cy="43" rx="3" ry="1.5" fill="#ffab91" opacity="0.5"/>
  <ellipse cx="61" cy="43" rx="3" ry="1.5" fill="#ffab91" opacity="0.5"/>
  <!-- Smile -->
  <path d="M45 46 Q50 50 55 46" fill="none" stroke="#c97070" stroke-width="1.3" stroke-linecap="round"/>
  <!-- Dress -->
  <path d="M34 58 Q38 55 50 55 Q62 55 66 58 L72 90 L28 90 Z" fill="#e91e63"/>
  <path d="M42 55 L50 65 L58 55" fill="none" stroke="#c2185b" stroke-width="1"/>
  <!-- Belt/ribbon -->
  <rect x="36" y="66" width="28" height="3" rx="1.5" fill="#ad1457"/>
  <!-- Arms -->
  <path d="M34 58 L24 72" stroke="#FFCC80" stroke-width="4.5" stroke-linecap="round"/>
  <path d="M66 58 L76 72" stroke="#FFCC80" stroke-width="4.5" stroke-linecap="round"/>
  <!-- Shoes -->
  <ellipse cx="40" cy="92" rx="6" ry="3" fill="#ad1457"/>
  <ellipse cx="60" cy="92" rx="6" ry="3" fill="#ad1457"/>
</svg>
